<svg width="60" height="60" viewBox="0 0 60 60" fill="none" xmlns="http://www.w3.org/2000/svg">
<circle cx="30" cy="30" r="30" fill="#A5A5A5"/>
<path d="M45 30C45 30.4774 44.8104 30.9352 44.4728 31.2728C44.1352 31.6104 43.6774 31.8 43.2 31.8H31.8V43.2C31.8 43.6774 31.6104 44.1352 31.2728 44.4728C30.9352 44.8104 30.4774 45 30 45C29.5226 45 29.0648 44.8104 28.7272 44.4728C28.3896 44.1352 28.2 43.6774 28.2 43.2V31.8H16.8C16.3226 31.8 15.8648 31.6104 15.5272 31.2728C15.1896 30.9352 15 30.4774 15 30C15 29.5226 15.1896 29.0648 15.5272 28.7272C15.8648 28.3896 16.3226 28.2 16.8 28.2H28.2V16.8C28.2 16.3226 28.3896 15.8648 28.7272 15.5272C29.0648 15.1896 29.5226 15 30 15C30.4774 15 30.9352 15.1896 31.2728 15.5272C31.6104 15.8648 31.8 16.3226 31.8 16.8V28.2H43.2C43.6774 28.2 44.1352 28.3896 44.4728 28.7272C44.8104 29.0648 45 29.5226 45 30Z" fill="#767676"/>
</svg>
