<svg width="21" height="24" viewBox="0 0 21 24" fill="none" xmlns="http://www.w3.org/2000/svg">
<path fill-rule="evenodd" clip-rule="evenodd" d="M15.0177 5.84603C14.5906 5.84603 14.2365 5.49186 14.2365 5.06478V3.78978C13.4302 3.7627 12.4833 3.7627 11.3719 3.7627H9.28853C8.17603 3.7627 7.2302 3.7627 6.42395 3.78978V5.06478C6.42395 5.49186 6.06978 5.84603 5.6427 5.84603C5.21562 5.84603 4.86145 5.49186 4.86145 5.06478V3.90228C3.87707 4.0304 3.20103 4.27728 2.72603 4.75228C2.09895 5.37936 1.86978 6.35644 1.78541 7.92936H18.875C18.7906 6.35644 18.5604 5.37936 17.9344 4.75228C17.4594 4.27728 16.7833 4.0304 15.799 3.90228V5.06478C15.799 5.49186 15.4448 5.84603 15.0177 5.84603ZM18.9177 9.49186C18.9233 10.0426 18.9253 10.6502 18.924 11.3148V12.3564C18.924 12.7835 19.2781 13.1377 19.7052 13.1377C20.1323 13.1377 20.4865 12.7835 20.4865 12.3564V11.3148C20.4865 7.16894 20.4865 5.09603 19.0385 3.64811C18.2344 2.84395 17.2365 2.48665 15.799 2.32728V1.41895C15.799 0.991862 15.4448 0.637695 15.0177 0.637695C14.5906 0.637695 14.2365 0.991862 14.2365 1.41895V2.22624C13.4073 2.2002 12.4604 2.2002 11.3719 2.2002H9.28853C8.19895 2.2002 7.25312 2.2002 6.42395 2.22624V1.41895C6.42395 0.991862 6.06978 0.637695 5.6427 0.637695C5.21562 0.637695 4.86145 0.991862 4.86145 1.41895V2.32728C3.42395 2.48665 2.42603 2.84395 1.62187 3.64811C0.17395 5.09603 0.17395 7.17936 0.17395 11.3148V13.3981C0.17395 17.5439 0.17395 19.6169 1.62187 21.0648C3.06978 22.5127 5.1427 22.5127 9.28853 22.5127C9.71562 22.5127 10.0698 22.1585 10.0698 21.7314C10.0698 21.3044 9.71562 20.9502 9.28853 20.9502C5.5802 20.9502 3.71562 20.9502 2.72603 19.9606C1.73645 18.971 1.73645 17.1064 1.73645 13.3981V11.3148C1.73576 10.6509 1.73749 10.0433 1.74166 9.49186H18.9177ZM15.5385 23.0335C12.8094 23.0335 10.5906 20.8148 10.5906 18.0856C10.5906 15.3564 12.8094 13.1377 15.5385 13.1377C18.2677 13.1377 20.4865 15.3564 20.4865 18.0856C20.4865 20.8148 18.2677 23.0335 15.5385 23.0335ZM15.5385 14.7002C13.674 14.7002 12.1531 16.221 12.1531 18.0856C12.1531 19.9502 13.674 21.471 15.5385 21.471C17.4031 21.471 18.924 19.9502 18.924 18.0856C18.924 16.221 17.4031 14.7002 15.5385 14.7002ZM16.0281 19.6794C16.1844 19.8356 16.3823 19.9085 16.5802 19.9085C16.7781 19.9085 16.976 19.8356 17.1323 19.6794C17.4344 19.3773 17.4344 18.8773 17.1323 18.5752L16.3198 17.7627V16.0023C16.3198 15.5752 15.9656 15.221 15.5385 15.221C15.1115 15.221 14.7573 15.5752 14.7573 16.0023V18.0856C14.7573 18.2939 14.8406 18.4919 14.9865 18.6377L16.0281 19.6794Z" fill="black"/>
</svg>
