<svg width="80" height="75" viewBox="0 0 80 75" fill="none" xmlns="http://www.w3.org/2000/svg">
<path d="M18.8978 65.408L32.4332 48.9948L38.6248 56.8922L26.6909 72.0683C22.1205 77.8758 13.6633 71.7558 18.8978 65.408ZM34.7054 28.0308C35.9945 23.8249 35.4021 20.2311 30.5582 14.8924L18.722 0.653802C17.0422 -1.3189 13.0838 1.5783 14.7375 3.96769L24.2039 15.6281C25.9943 17.8027 22.6674 20.6803 20.8184 18.4407L11.0265 6.38311C9.2035 4.29321 5.43388 7.0537 7.34148 9.44308C10.102 12.7635 14.3729 18.1868 17.1334 21.5072C19.0475 23.4538 16.1373 26.338 14.2492 23.9096L4.52891 11.9301C3.10309 10.3806 0.772306 11.3442 0.153801 13.1541C-0.510278 15.0878 1.12388 16.5005 2.23719 17.9329L13.0838 31.9436C16.4498 35.8435 20.2129 38.1547 24.588 36.8461C25.2586 36.6443 26.0789 36.2341 26.9578 35.6937L56.0992 73.3118C57.6682 75.3366 60.6957 75.5515 62.6619 73.9173L63.1111 73.5462C65.3247 71.7037 65.6828 68.3378 63.7882 66.1632L32.9281 30.7066C33.8265 29.704 34.4841 28.7535 34.7054 28.0308ZM42.9543 36.2341L47.7526 30.4137C41.5806 15.1138 64.4523 -5.27733 75.5398 4.0979C89.0102 15.4979 68.9901 42.9726 54.9208 36.182L49.237 43.4023L42.9543 36.2341Z" fill="#A5A5A5"/>
</svg>
