<svg width="80" height="73" viewBox="0 0 80 73" fill="none" xmlns="http://www.w3.org/2000/svg">
<path d="M40 12.3749L37.9617 14.2809C38.4893 14.8453 39.2272 15.1656 40 15.1656C40.7728 15.1656 41.5107 14.8453 42.0383 14.2809L40 12.3749ZM30.4533 61.5737C25.0584 57.1957 18.7597 51.4554 13.8333 45.1722C8.85325 38.8206 5.5814 32.2997 5.5814 26.3037H0C0 34.1843 4.20618 41.9395 9.44108 48.6159C14.7298 55.3612 21.3831 61.4011 26.9363 65.9075L30.4533 61.5737ZM5.5814 26.3037C5.5814 15.4959 10.2983 8.81467 16.134 6.52957C21.9569 4.24953 30.1038 5.87688 37.9617 14.2809L42.0383 10.4689C33.1527 0.965478 22.6948 -2.03348 14.099 1.3324C5.51598 4.69322 0 13.9301 0 26.3037H5.5814ZM53.0638 65.9075C58.6169 61.4011 65.2703 55.3616 70.5589 48.6163C75.7939 41.9395 80 34.1843 80 26.3036H74.4186C74.4186 32.2997 71.1468 38.8206 66.1667 45.1722C61.2406 51.4554 54.9418 57.1957 49.5468 61.5737L53.0638 65.9075ZM80 26.3036C80 13.9301 74.4841 4.69318 65.901 1.3324C57.3053 -2.03348 46.8473 0.965478 37.9617 10.4689L42.0383 14.2809C49.8962 5.87688 58.0432 4.2495 63.866 6.52957C69.7016 8.81463 74.4186 15.4958 74.4186 26.3036H80ZM26.9363 65.9075C31.6673 69.7467 34.9481 72.5642 40 72.5642V66.9828C37.3101 66.9828 35.635 65.7784 30.4533 61.5737L26.9363 65.9075ZM49.5468 61.5737C44.365 65.7784 42.6899 66.9828 40 66.9828V72.5642C45.0519 72.5642 48.3326 69.7467 53.0638 65.9075L49.5468 61.5737Z" fill="#A5A5A5"/>
<path d="M64.1861 25.1226H56.7442H64.1861ZM56.7442 25.1226H49.3024H56.7442ZM56.7442 25.1226V17.6807V25.1226ZM56.7442 25.1226V32.5644V25.1226Z" fill="#A5A5A5"/>
<path d="M64.1861 25.1226H56.7442M56.7442 25.1226H49.3024M56.7442 25.1226V17.6807M56.7442 25.1226V32.5644" stroke="#A5A5A5" stroke-width="3.75" stroke-linecap="round"/>
</svg>
