<svg width="80" height="58" viewBox="0 0 80 58" fill="none" xmlns="http://www.w3.org/2000/svg">
<path d="M18.293 0.5H23.2178C23.9618 0.500066 24.6105 0.797647 25.0361 1.29688C25.4583 1.79208 25.6925 2.52394 25.5381 3.45508L25.5322 3.49512V55.5244C25.5322 56.6654 24.6978 57.5 23.5693 57.5H17.2373C16.1088 57.5 15.2744 56.6654 15.2744 55.5244V3.53613C15.2747 1.7201 16.7799 0.5 18.293 0.5ZM62.2656 0.5C66.7789 0.500057 70.7473 1.37369 73.7012 2.79395C76.6695 4.22114 78.5364 6.1584 79.0156 8.24609L79.0469 8.38574L79.1484 8.48633C79.2388 8.57718 79.3139 8.65402 79.3779 8.72754C79.4283 8.78538 79.4588 8.83077 79.4785 8.86328L79.3545 8.98926V49.5117C79.3545 50.0003 79.1421 50.2262 78.7959 50.5742L78.7266 50.6445L78.6885 50.7354C77.8792 52.688 75.9029 54.3827 73.0205 55.5938C70.1481 56.8005 66.4351 57.5 62.2656 57.5C57.924 57.5 54.0388 56.7134 51.082 55.3779C48.1137 54.0372 46.1501 52.1783 45.5059 50.0732L45.4697 49.9551L45.3828 49.8672L45.3174 49.7939C45.1833 49.625 45.1758 49.4617 45.1758 49.1582V9.2168C45.3403 6.813 47.1028 4.64233 50.1406 3.05078C53.1741 1.4615 57.3999 0.5 62.2656 0.5ZM3.51758 12.8779H8.09082C8.80823 12.8779 9.56091 13.2442 10.0986 13.8232C10.6352 14.4012 10.9035 15.1295 10.7666 15.8174L10.7568 15.8652V55.1709C10.7568 56.3117 9.92319 57.1463 8.79492 57.1465H2.46289C1.33443 57.1465 0.500065 56.3119 0.5 55.1709V15.915C0.5 14.0988 2.00446 12.8781 3.51758 12.8779ZM33.4189 26.3174H37.9922C38.9042 26.3174 39.6522 26.6985 40.1318 27.2178C40.6188 27.7453 40.7983 28.3739 40.6729 28.8789L40.6582 28.9385V54.8174C40.6581 55.9581 39.8245 56.7928 38.6963 56.793H32.3643C31.2359 56.793 30.4015 55.9583 30.4014 54.8174V29.3535C30.4015 27.5374 31.9059 26.3175 33.4189 26.3174ZM18.1445 54.9639H23.7178V3.03613H18.1445V54.9639ZM76.0283 43.46C72.9805 45.843 68.1795 47.2441 62.2656 47.2441C56.3547 47.2441 51.5346 45.8441 48.4727 43.792L47.6943 43.2705V48.8047C47.6943 49.6243 48.182 50.4107 48.9121 51.0977C49.6529 51.7947 50.7073 52.4521 51.9941 53.0195C54.5712 54.1558 58.159 54.9639 62.2656 54.9639C66.3704 54.9638 69.9623 54.157 72.502 52.9717C73.77 52.3798 74.7999 51.6821 75.4961 50.9219C76.0456 50.3218 76.4107 49.6523 76.4844 48.9512H76.8369V42.8281L76.0283 43.46ZM3.01758 54.6094H8.59082V15.415H3.01758V54.6094ZM32.9189 54.6094H38.4922V29.207H32.9189V54.6094ZM76.3799 33.5576C73.332 35.9406 68.5311 37.3418 62.6172 37.3418C56.7062 37.3418 51.8862 35.9418 48.8242 33.8896L48.6973 33.8047H47.6943V38.5488C47.6943 39.3684 48.182 40.1548 48.9121 40.8418C49.6529 41.5388 50.7073 42.1963 51.9941 42.7637C54.5712 43.9 58.159 44.707 62.2656 44.707C66.3636 44.707 69.9504 43.9915 72.5303 42.8994C73.8187 42.354 74.8779 41.7055 75.623 40.9863C76.225 40.4054 76.6483 39.7508 76.7871 39.0488H77.1885V32.9258L76.3799 33.5576ZM76.3799 24.3623C73.332 26.7454 68.5312 28.1465 62.6172 28.1465C56.7061 28.1465 51.8861 26.7465 48.8242 24.6943L48.6973 24.6094H48.5459L48.1934 24.6104H47.6943V28.293C47.6944 29.1125 48.1821 29.899 48.9121 30.5859C49.6529 31.2829 50.7074 31.9404 51.9941 32.5078C54.5712 33.6441 58.159 34.4512 62.2656 34.4512C66.3636 34.4511 69.9504 33.7356 72.5303 32.6436C73.8187 32.0981 74.8779 31.4496 75.623 30.7305C76.225 30.1495 76.6482 29.4949 76.7871 28.793H77.1885V23.7305L76.3799 24.3623ZM76.3799 14.1064C73.332 16.4894 68.5311 17.8906 62.6172 17.8906C56.7062 17.8906 51.8862 16.4906 48.8242 14.4385L48.6982 14.3535H47.6943V19.4512C47.6943 20.2708 48.182 21.0571 48.9121 21.7441C49.6529 22.4412 50.7073 23.0986 51.9941 23.666C54.5712 24.8023 58.159 25.6094 62.2656 25.6094C66.3636 25.6093 69.9504 24.8938 72.5303 23.8018C73.8187 23.2563 74.8779 22.6078 75.623 21.8887C76.225 21.3077 76.6483 20.6532 76.7871 19.9512H77.1885V13.4746L76.3799 14.1064ZM62.2656 3.03613C58.3312 3.03613 54.8319 3.84547 52.2578 4.98047C50.9718 5.54753 49.901 6.20188 49.1211 6.8916C48.3522 7.57158 47.8115 8.33499 47.6992 9.125L47.6943 9.16016V9.19531C47.6944 10.0149 48.1821 10.8013 48.9121 11.4883C49.6529 12.1853 50.7074 12.8428 51.9941 13.4102C54.5712 14.5464 58.159 15.3535 62.2656 15.3535C66.3636 15.3535 69.9504 14.638 72.5303 13.5459C73.8187 13.0005 74.8779 12.352 75.623 11.6328C76.3657 10.916 76.8369 10.0872 76.8369 9.19531C76.8369 8.37571 76.3482 7.58935 75.6182 6.90234C74.8775 6.2054 73.8237 5.54783 72.5371 4.98047C69.9601 3.84416 66.3722 3.03619 62.2656 3.03613Z" fill="#A5A5A5" stroke="#A5A5A5"/>
</svg>
