<svg width="30" height="30" viewBox="0 0 30 30" fill="none" xmlns="http://www.w3.org/2000/svg">
<path d="M15 7.4C15.3182 7.4 15.6235 7.27357 15.8485 7.04853C16.0736 6.82348 16.2 6.51826 16.2 6.2C16.2 5.88174 16.0736 5.57652 15.8485 5.35147C15.6235 5.12643 15.3182 5 15 5C14.6817 5 14.3765 5.12643 14.1515 5.35147C13.9264 5.57652 13.8 5.88174 13.8 6.2C13.8 6.51826 13.9264 6.82348 14.1515 7.04853C14.3765 7.27357 14.6817 7.4 15 7.4ZM15 16.2C15.3182 16.2 15.6235 16.0736 15.8485 15.8485C16.0736 15.6235 16.2 15.3183 16.2 15C16.2 14.6817 16.0736 14.3765 15.8485 14.1515C15.6235 13.9264 15.3182 13.8 15 13.8C14.6817 13.8 14.3765 13.9264 14.1515 14.1515C13.9264 14.3765 13.8 14.6817 13.8 15C13.8 15.3183 13.9264 15.6235 14.1515 15.8485C14.3765 16.0736 14.6817 16.2 15 16.2ZM15 25C15.3182 25 15.6235 24.8736 15.8485 24.6485C16.0736 24.4235 16.2 24.1183 16.2 23.8C16.2 23.4817 16.0736 23.1765 15.8485 22.9515C15.6235 22.7264 15.3182 22.6 15 22.6C14.6817 22.6 14.3765 22.7264 14.1515 22.9515C13.9264 23.1765 13.8 23.4817 13.8 23.8C13.8 24.1183 13.9264 24.4235 14.1515 24.6485C14.3765 24.8736 14.6817 25 15 25Z" stroke="black" stroke-width="1.5625" stroke-linecap="round" stroke-linejoin="round"/>
</svg>
