<svg width="80" height="80" viewBox="0 0 80 80" fill="none" xmlns="http://www.w3.org/2000/svg">
<path fill-rule="evenodd" clip-rule="evenodd" d="M72.5 25H7.5C6.12 25 5 23.8825 5 22.5C5 21.12 6.12 20 7.5 20H72.5C73.88 20 75 21.12 75 22.5C75 23.8825 73.88 25 72.5 25ZM42.5 30H70V50H42.5V30ZM70 70C70 72.76 67.76 75 65 75H42.5V55H70V70ZM10 30H37.5V50H10V30ZM37.5 75H15C12.24 75 10 72.76 10 70V55H37.5V75ZM32.5 5C35.26 5 37.5 7.24 37.5 10C37.5 12.76 35.26 15 32.5 15C29.74 15 27.5 12.76 27.5 10C27.5 7.24 29.74 5 32.5 5ZM47.5 5C50.26 5 52.5 7.24 52.5 10C52.5 12.76 50.26 15 47.5 15C44.74 15 42.5 12.76 42.5 10C42.5 7.24 44.74 5 47.5 5ZM75 15H56.1125C56.9725 13.525 57.5 11.83 57.5 10C57.5 4.4775 53.0225 0 47.5 0C44.495 0 41.8325 1.35251 40 3.45001C38.1675 1.35251 35.505 0 32.5 0C26.9775 0 22.5 4.4775 22.5 10C22.5 11.83 23.0275 13.525 23.8875 15H5C2.24 15 0 17.24 0 20V25C0 27.76 2.24 30 5 30V70C5 75.5225 9.4775 80 15 80H65C70.5225 80 75 75.5225 75 70V30C77.76 30 80 27.76 80 25V20C80 17.24 77.76 15 75 15Z" fill="#A5A5A5"/>
</svg>
