<svg width="80" height="76" viewBox="0 0 80 76" fill="none" xmlns="http://www.w3.org/2000/svg">
<path d="M73.913 23.4783H69.7659C69.7342 23.443 69.7045 23.4066 69.6706 23.3728L47.062 0.764063C46.0434 -0.254687 44.3916 -0.254687 43.3728 0.764063C42.3541 1.78281 42.3541 3.43453 43.3728 4.45328L62.3977 23.4781H17.6022L36.6272 4.45328C37.6459 3.43453 37.6459 1.78281 36.6272 0.764063C35.6086 -0.254687 33.9567 -0.254687 32.938 0.764063L10.3292 23.3728C10.2953 23.4067 10.2656 23.4431 10.2339 23.4783H6.08703C2.73062 23.4783 0 26.2089 0 29.5652V33.0434C0 36.2405 2.47734 38.8695 5.61312 39.1122L10.6131 69.1127C11.2448 72.9019 14.4913 75.6522 18.3328 75.6522H62.4313C66.3008 75.6522 69.6314 72.7634 70.1787 68.9328L74.4394 39.1078C77.5503 38.84 79.9998 36.2223 79.9998 33.0434V29.5652C80 26.2089 77.2694 23.4783 73.913 23.4783ZM74.7827 33.0434C74.7827 33.523 74.3925 33.913 73.9131 33.913C73.1122 33.913 48.9691 33.913 47.8263 33.913C46.3856 33.913 45.2175 35.0809 45.2175 36.5217C45.2175 37.9623 46.3855 39.1305 47.8263 39.1305H69.1663L65.0141 68.1952C64.8316 69.472 63.7214 70.4348 62.4314 70.4348H18.3328C17.0523 70.4348 15.9702 69.5181 15.7595 68.255L10.9056 39.1305H32.1739C33.6145 39.1305 34.7827 37.9625 34.7827 36.5217C34.7827 35.0811 33.6147 33.913 32.1739 33.913C31.0294 33.913 6.88453 33.913 6.08703 33.913C5.6075 33.913 5.2175 33.5228 5.2175 33.0434V29.5652C5.2175 29.0856 5.60766 28.6956 6.08703 28.6956H73.9131C74.3927 28.6956 74.7827 29.0858 74.7827 29.5652V33.0434Z" fill="#A5A5A5"/>
</svg>
